<svg data-v-0dd9719b="" version="1.0" xmlns="http://www.w3.org/2000/svg" xmlns:xlink="http://www.w3.org/1999/xlink" width="100%" height="100%" viewBox="0 0 340.000000 250.000000" preserveAspectRatio="xMidYMid meet" color-interpolation-filters="sRGB" style="margin: auto;"> <rect data-v-0dd9719b="" x="0" y="0" width="100%" height="100%" fill="#fff" fill-opacity="1" class="background"></rect> <rect data-v-0dd9719b="" x="0" y="0" width="100%" height="100%" fill="url(#watermark)" fill-opacity="1" class="watermarklayer"></rect> <g data-v-0dd9719b="" fill="#a4d907" class="icon-text-wrapper icon-svg-group iconsvg" transform="translate(48.04328918457031,95.01738929748535)"><g class="iconsvg-imagesvg" transform="translate(0,0)"><g><rect fill="#a4d907" fill-opacity="0" stroke-width="2" x="0" y="0" width="60" height="59.965220172300064" class="image-rect"></rect> <svg x="0" y="0" width="60" height="59.965220172300064" filtersec="colorsb124913714" class="image-svg-svg primary" style="overflow: visible;"><svg xmlns="http://www.w3.org/2000/svg" viewBox="0 0 68.44000244140625 68.4000015258789"><g><g fill-rule="evenodd"><path d="M20.5 8.93h36.37V0h-45.3v45.26h8.93V8.93z" fill="#fcc12e"></path><path d="M47.94 58.93v.58H11.57v8.89h45.3V23.14h-8.92v35.75z" fill="#20cad9"></path><path d="M68.44 11.57H23.18v8.93h36.33v36.37h8.89v-45.3z" fill="#a4d907"></path><path d="M45.26 47.94H8.93v-.88-35.49H0v45.3h45.26v-8.93z" fill="#ff6b8b"></path></g></g></svg></svg> <!----></g></g> <g transform="translate(67,1.6263599395751953)"><g data-gra="path-name" fill-rule="" class="tp-name iconsvg-namesvg" transform="translate(0,0)"><g transform="scale(1)"><g><path d="M5.46 4.58L5.46 4.58Q3.13 1.63 1.72 0.79L1.72 0.79Q5.81-4.63 5.81-17.53L5.81-17.53 5.81-30.18 21.85-30.18Q20.97-33.7 20.13-35.9L20.13-35.9 25.73-37Q27.49-32.56 28.06-30.18L28.06-30.18 42.47-30.18 42.47-26.74 11.76-26.74 11.76-17.49Q11.76-14.32 11.37-10.51 10.97-6.7 9.82-3.08 8.68 0.53 5.46 4.58ZM50.75 3.96L50.75 3.96Q49.6 2.07 48.74 1.19 47.89 0.31 47.84 0.22L47.84 0.22Q50.66-2.38 52.42-6.26 54.19-10.13 54.69-14.34 55.2-18.55 55.2-22.56L55.2-22.56 55.2-35.95 60.84-35.95 60.84-22.56Q60.84-18.11 60.29-13.61 59.74-9.12 57.82-4.91 55.9-0.7 50.75 3.96ZM73.13-34.98L73.13 0.26 67.53 0.26 67.53-34.98 73.13-34.98ZM85.99-36.08L85.99 2.73 80.31 2.73 80.31-36.08 85.99-36.08ZM51.01-12.91L51.01-12.91 46.52-14.76Q48.94-19.25 49.96-26.26L49.96-26.26 54.98-24.89Q53.79-17.58 51.01-12.91ZM67.84-14.98L62.86-12.73Q62.47-15.46 61.56-18.61 60.66-21.76 59.78-23.83L59.78-23.83 64.27-25.55Q67.4-18.72 67.84-14.98L67.84-14.98ZM81.15-15.55L76.48-12.95Q75.15-18.46 72.16-24.01L72.16-24.01 76.17-26.04Q78.19-22.69 79.49-19.82 80.79-16.96 81.15-15.55L81.15-15.55ZM131.23 0.93L126.61 3.74Q125.33 1.32 124.14-0.26L124.14-0.26Q120.75 0.04 108.46 0.97L108.46 0.97Q101.98 1.5 99.78 1.85L99.78 1.85Q98.9 2.03 97.14 2.82L97.14 2.82 95.86-1.23Q97.05-1.54 98.81-3.26L98.81-3.26Q101.72-5.77 106.12-11.45L106.12-11.45 94.01-11.45 94.01-14.93 131.67-14.93 131.67-11.45 112.73-11.45Q109.3-7 104.05-2.16L104.05-2.16 121.72-3.39Q118.77-6.78 117.22-8.19L117.22-8.19 121.1-10.22Q124.8-6.92 127.49-3.83 130.18-0.75 131.23 0.93L131.23 0.93ZM103.74-23.35L122.29-23.35Q115.68-27.67 112.82-30.44L112.82-30.44Q109.91-27.36 103.74-23.35L103.74-23.35ZM94.89-18.68L94.89-18.68Q94.01-20.26 92.42-22.29L92.42-22.29Q98.11-24.63 103.39-28.39 108.68-32.16 112.29-37.18L112.29-37.18 116.92-35.07 115.55-33.39Q119.25-29.96 123.92-27.14 128.59-24.32 133.22-22.69L133.22-22.69Q131.63-20.79 130.79-19.25L130.79-19.25Q125.81-21.28 123.88-22.42L123.88-22.42 123.88-20.09 101.67-20.09 101.67-22.11Q99.87-21.01 94.89-18.68ZM153.92-13.52L174.45-13.52Q168.28-17.36 166.52-19.69L166.52-19.69 166.52-14.89 161.23-14.89 161.23-19.16Q159.78-17.18 153.92-13.52L153.92-13.52ZM166.3-1.1L170.44-1.1 170.44-4.85 166.3-4.85 166.3-1.1ZM157.71-1.1L161.28-1.1 161.28-4.85 157.71-4.85 157.71-1.1ZM157.71-7.27L161.28-7.27 161.28-10.97 157.71-10.97 157.71-7.27ZM166.3-7.27L170.44-7.27 170.44-10.97 166.3-10.97 166.3-7.27ZM138.37 3.22L138.37 3.22Q138.24 2.07 137.53-0.04L137.53-0.04 140.44 0Q141.41 0 141.85-0.04L141.85-0.04Q141.81-0.04 141.81-0.09L141.81-0.09Q141.94-0.18 141.94-11.85L141.94-11.85Q140.66-11.37 137-10.13L137-10.13 136.26-13.83Q138.9-14.58 141.94-15.64L141.94-15.64 141.94-24.85 136.83-24.85 136.83-28.11 141.94-28.11 141.94-36.61 147.27-36.61 147.27-28.11 151.67-28.11 151.67-24.89 147.27-24.89 147.27-17.49 150.93-18.85 151.37-16.3Q154.76-17.97 158.68-22.73L158.68-22.73 150.26-22.73 150.26-25.51 155.59-25.51Q154.27-28.9 153.61-30.09L153.61-30.09 157.97-31.41Q159.82-28.19 160.22-27.05L160.22-27.05 155.77-25.51 161.23-25.51 161.23-32.07Q157.09-31.76 151.5-31.59L151.5-31.59Q151.41-32.33 151.15-33.26L151.15-33.26Q150.93-33.96 150.93-34.05L150.93-34.05Q165.64-34.89 173.88-36.65L173.88-36.65 175.81-34.05Q171.59-33.08 166.52-32.6L166.52-32.6 166.52-25.51 167.09-25.51Q168.72-28.46 170.13-32.25L170.13-32.25 174.85-30.88Q173.88-28.85 171.98-25.51L171.98-25.51 178.02-25.51 178.02-22.73 169.25-22.73Q173.96-17.53 178.63-15.55L178.63-15.55Q178.68-15.55 178-14.8 177.31-14.05 176.43-12.56L176.43-12.56 175.42-13.04 175.81-12.82 175.81 2.91 170.44 2.91 170.44 1.37 157.71 1.37 157.71 3.17 152.51 3.17 152.51-13.17Q152.78-13.44 153.66-13.44L153.66-13.44Q153.13-13.08 151.06-12.2L151.06-12.2Q150.26-13.39 149.34-14.63L149.34-14.63 147.27-13.83 147.27-1.06Q147.27 1.54 145.59 2.25L145.59 2.25Q143.83 3.22 138.37 3.22Z" transform="translate(-1.7200000286102295, 37.18000030517578)"></path></g> <!----> <!----> <!----> <!----> <!----> <!----> <!----></g></g> <g data-gra="path-slogan" fill-rule="" class="tp-slogan iconsvg-slogansvg" fill="#a4d907" transform="translate(5,47.76000213623047)"><rect x="0" height="1" y="3.9750003814697266" width="21.511157989501953"></rect> <rect height="1" y="3.9750003814697266" width="21.511157989501953" x="145.40226364135742"></rect> <g transform="translate(24.511157989501953,0)"><g transform="scale(1)"><path d="M7.31-3.61L4.69-3.61L4.69-4.59L8.44-4.59L8.44 0L7.69 0L7.41-1.08Q6.42 0.09 4.59 0.14L4.59 0.14Q2.86 0.14 1.92-0.75L1.92-0.75Q0.52-2.06 0.56-4.36L0.56-4.36Q0.89-8.63 4.64-8.81L4.64-8.81Q7.83-8.63 8.30-6L8.30-6L7.17-6Q6.70-7.78 4.59-7.83L4.59-7.83Q1.92-7.64 1.78-4.31L1.78-4.31Q1.78-0.75 4.64-0.75L4.64-0.75Q5.67-0.75 6.42-1.31L6.42-1.31Q7.36-2.06 7.31-3.61L7.31-3.61ZM15.89-3.19L15.89-8.58L17.06-8.58L17.06-3.05Q16.92 0.05 13.55 0.14L13.55 0.14Q10.41 0.05 10.27-2.86L10.27-2.86L10.27-8.58L11.44-8.58L11.44-3.19Q11.48-0.84 13.59-0.80L13.59-0.80Q15.89-0.84 15.89-3.19L15.89-3.19ZM24.52 0L23.67-2.48L20.20-2.48L19.31 0L18.14 0L21.38-8.58L22.69-8.58L25.78 0L24.52 0ZM21.94-7.31L20.58-3.52L23.25-3.52L21.98-7.31L21.94-7.31ZM28.22-8.58L32.53-1.64L32.53-8.58L33.66-8.58L33.66 0L32.34 0L27.98-6.94L27.94-6.94L27.94 0L26.81 0L26.81-8.58L28.22-8.58ZM41.86-3.61L39.23-3.61L39.23-4.59L42.98-4.59L42.98 0L42.23 0L41.95-1.08Q40.97 0.09 39.14 0.14L39.14 0.14Q37.41 0.14 36.47-0.75L36.47-0.75Q35.06-2.06 35.11-4.36L35.11-4.36Q35.44-8.63 39.19-8.81L39.19-8.81Q42.38-8.63 42.84-6L42.84-6L41.72-6Q41.25-7.78 39.14-7.83L39.14-7.83Q36.47-7.64 36.33-4.31L36.33-4.31Q36.33-0.75 39.19-0.75L39.19-0.75Q40.22-0.75 40.97-1.31L40.97-1.31Q41.91-2.06 41.86-3.61L41.86-3.61ZM45.61-1.03L50.91-1.03L50.91 0L44.16 0L44.16-0.94L49.41-7.59L44.53-7.59L44.53-8.58L50.91-8.58L50.91-7.59L45.61-1.03ZM53.20-5.06L57.70-5.06L57.70-8.58L58.88-8.58L58.88 0L57.70 0L57.70-3.98L53.20-3.98L53.20 0L52.03 0L52.03-8.58L53.20-8.58L53.20-5.06ZM67.45-4.27L67.45-4.27Q67.27-7.64 64.45-7.83L64.45-7.83Q61.59-7.69 61.45-4.27L61.45-4.27Q61.59-0.94 64.45-0.80L64.45-0.80Q67.27-0.98 67.45-4.27ZM68.63-4.27L68.63-4.27Q68.34 0 64.45 0.14L64.45 0.14Q60.52 0 60.23-4.27L60.23-4.27Q60.47-8.72 64.45-8.81L64.45-8.81Q68.34-8.67 68.63-4.27ZM75.66-3.19L75.66-8.58L76.83-8.58L76.83-3.05Q76.69 0.05 73.31 0.14L73.31 0.14Q70.17 0.05 70.03-2.86L70.03-2.86L70.03-8.58L71.20-8.58L71.20-3.19Q71.25-0.84 73.36-0.80L73.36-0.80Q75.66-0.84 75.66-3.19L75.66-3.19ZM83.11-5.06L87.61-5.06L87.61-8.58L88.78-8.58L88.78 0L87.61 0L87.61-3.98L83.11-3.98L83.11 0L81.94 0L81.94-8.58L83.11-8.58L83.11-5.06ZM96.23-3.19L96.23-8.58L97.41-8.58L97.41-3.05Q97.27 0.05 93.89 0.14L93.89 0.14Q90.75 0.05 90.61-2.86L90.61-2.86L90.61-8.58L91.78-8.58L91.78-3.19Q91.83-0.84 93.94-0.80L93.94-0.80Q96.23-0.84 96.23-3.19L96.23-3.19ZM99.38-8.58L100.55-8.58L100.55 0L99.38 0L99.38-8.58ZM105.75-7.64L103.69-7.64L103.69-4.97L105.75-4.97Q107.58-4.92 107.53-6.38L107.53-6.38Q107.53-7.64 105.75-7.64L105.75-7.64ZM106.22 0L102.52 0L102.52-8.58L106.31-8.58Q108.61-8.48 108.70-6.42L108.70-6.42Q108.70-5.16 107.58-4.64L107.58-4.64Q109.17-4.08 109.17-2.53L109.17-2.53Q109.03-0.09 106.22 0L106.22 0ZM105.94-3.98L103.69-3.98L103.69-0.98L106.17-0.98Q107.95-1.03 108-2.53L108-2.53Q108-3.98 105.94-3.98L105.94-3.98ZM117.28-4.27L117.28-4.27Q117.09-7.64 114.28-7.83L114.28-7.83Q111.42-7.69 111.28-4.27L111.28-4.27Q111.42-0.94 114.28-0.80L114.28-0.80Q117.09-0.98 117.28-4.27ZM118.45-4.27L118.45-4.27Q118.17 0 114.28 0.14L114.28 0.14Q110.34 0 110.06-4.27L110.06-4.27Q110.30-8.72 114.28-8.81L114.28-8.81Q118.17-8.67 118.45-4.27Z" transform="translate(-0.5609879032258065, 8.8125)"></path></g></g></g></g></g><defs v-gra="od"></defs></svg>